<?xml version="1.0" standalone="no"?>
<!DOCTYPE svg PUBLIC "-//W3C//DTD SVG 20010904//EN"
 "http://www.w3.org/TR/2001/REC-SVG-20010904/DTD/svg10.dtd">
<svg version="1.0" xmlns="http://www.w3.org/2000/svg"
 width="900.000000pt" height="900.000000pt" viewBox="0 0 900.000000 900.000000"
 preserveAspectRatio="xMidYMid meet">
<metadata>
Created by potrace 1.11, written by Peter Selinger 2001-2013
</metadata>
<g transform="translate(0.000000,900.000000) scale(0.100000,-0.100000)"
fill="#000000" stroke="none">
<path d="M0 4500 l0 -4500 4500 0 4500 0 0 4500 0 4500 -4500 0 -4500 0 0
-4500z m6490 3570 c32 -32 25 -65 -22 -108 -23 -20 -76 -69 -118 -108 -41 -39
-163 -149 -270 -244 -396 -352 -646 -576 -685 -615 -22 -22 -141 -130 -265
-240 -311 -277 -357 -322 -344 -335 7 -7 271 -9 855 -8 l844 3 3 473 2 472 65
0 65 0 2 -472 3 -473 168 -3 168 -2 -3 -63 -3 -62 -167 -3 -168 -2 0 -770 c0
-681 2 -770 15 -770 8 0 37 21 63 48 26 26 148 137 272 247 357 317 638 570
744 671 6 5 137 122 291 259 154 136 322 285 373 331 99 90 126 100 162 64 11
-11 20 -31 20 -44 0 -25 -27 -50 -435 -413 -99 -88 -252 -226 -340 -308 -88
-82 -288 -263 -445 -403 -405 -362 -434 -389 -514 -467 l-71 -70 265 -5 265
-5 0 -65 0 -65 -333 -3 -332 -2 2 -818 3 -817 168 -3 167 -2 0 -65 0 -65 -170
0 -170 0 0 -450 0 -450 -65 0 -65 0 -2 448 -3 447 -917 3 -918 2 0 -450 0
-450 -70 0 -70 0 0 390 c0 320 -2 390 -13 390 -14 0 -290 -242 -427 -375 -57
-55 -439 -397 -837 -750 -6 -5 -38 -35 -70 -66 -47 -46 -506 -456 -565 -506
-30 -26 -87 18 -88 67 0 18 18 41 67 85 37 33 101 92 143 131 79 75 373 338
600 538 74 65 167 149 205 185 104 97 234 215 475 431 334 298 401 361 395
371 -4 5 -352 9 -865 9 l-860 0 -2 -452 -3 -453 -67 -3 -68 -3 0 456 0 455
-190 0 -190 0 0 65 0 65 190 0 190 0 0 765 c0 471 -4 765 -9 765 -6 0 -13 -4
-16 -10 -3 -5 -88 -83 -188 -172 -100 -89 -187 -166 -192 -172 -6 -6 -33 -31
-60 -55 -78 -69 -243 -220 -315 -287 -36 -33 -207 -187 -380 -341 -173 -154
-334 -298 -357 -319 -87 -82 -213 -195 -335 -302 -70 -62 -129 -116 -133 -121
-7 -12 -66 4 -77 21 -16 26 -8 77 15 99 12 12 201 181 420 376 218 195 421
378 450 406 67 66 251 231 762 686 77 68 152 136 167 150 104 101 136 136 132
143 -3 4 -135 8 -295 8 l-289 0 0 70 0 70 350 0 350 0 0 815 0 815 -190 0
-190 0 0 65 0 65 190 0 190 0 0 475 0 475 70 0 70 0 0 -470 0 -470 920 0 920
0 0 470 0 470 65 0 65 0 2 -422 c2 -290 6 -422 14 -425 11 -4 305 256 467 412
23 23 211 191 417 374 206 184 425 380 485 437 384 357 418 381 465 334z"/>
<path d="M2670 5510 c0 -710 1 -770 17 -770 15 0 117 87 263 226 36 34 175
160 310 279 238 212 366 326 480 431 30 28 75 68 99 90 24 21 51 46 60 55 24
24 229 208 369 332 67 59 122 112 122 117 0 6 -315 10 -860 10 l-860 0 0 -770z"/>
<path d="M4650 5721 l0 -560 118 -143 c65 -79 129 -154 143 -168 13 -14 57
-64 98 -113 40 -48 83 -89 95 -92 11 -2 327 -1 701 3 l680 7 0 810 0 810 -917
3 -918 2 0 -559z"/>
<path d="M4239 5947 c-136 -122 -280 -251 -320 -287 -41 -36 -112 -101 -159
-145 -82 -77 -275 -250 -594 -534 -83 -73 -180 -161 -216 -193 -36 -33 -80
-74 -97 -90 -18 -16 -33 -34 -33 -39 0 -5 253 -9 629 -9 l628 0 144 172 c79
95 177 210 217 256 l72 83 0 505 c0 397 -3 504 -12 504 -7 -1 -124 -101 -259
-223z"/>
<path d="M4375 4804 c-60 -74 -111 -139 -113 -144 -2 -6 46 -10 122 -10 l126
0 0 145 c0 110 -3 145 -12 145 -7 -1 -62 -62 -123 -136z"/>
<path d="M4650 4796 l0 -146 120 0 c97 0 120 3 120 14 0 8 -3 16 -8 18 -4 2
-54 58 -110 125 -56 67 -107 125 -112 128 -6 4 -10 -45 -10 -139z"/>
<path d="M2670 3754 c0 -642 2 -755 14 -752 8 2 106 113 217 248 112 135 236
282 274 326 39 44 131 154 205 244 74 91 178 214 230 275 170 197 330 393 330
404 0 8 -180 11 -635 11 l-635 0 0 -756z"/>
<path d="M4093 4468 c-22 -24 -107 -124 -189 -223 -81 -99 -151 -182 -154
-185 -7 -6 -219 -261 -367 -440 -61 -74 -124 -148 -139 -165 -100 -111 -464
-558 -464 -570 0 -13 99 -15 863 -13 l862 3 3 818 2 817 -188 0 -188 0 -41
-42z"/>
<path d="M4780 4496 c0 -8 62 -70 138 -137 75 -68 157 -142 182 -165 64 -60
117 -109 164 -150 37 -32 113 -101 246 -222 50 -46 61 -49 81 -26 10 13 10 19
0 37 -18 28 -297 366 -356 431 -11 12 -62 72 -114 134 l-94 112 -124 0 c-100
0 -123 -3 -123 -14z"/>
<path d="M5220 4495 c0 -12 59 -86 206 -255 12 -14 79 -94 148 -177 69 -84
130 -153 135 -153 8 0 537 467 618 547 18 17 33 36 33 42 0 8 -167 11 -570 11
-497 0 -570 -2 -570 -15z"/>
<path d="M4650 3685 c0 -399 2 -725 5 -725 6 0 186 158 460 404 321 289 345
310 345 323 0 6 -8 18 -18 25 -16 11 -111 94 -195 172 -13 12 -68 62 -123 112
-194 178 -439 396 -456 405 -17 9 -18 -28 -18 -716z"/>
<path d="M6430 4369 c-19 -17 -71 -64 -115 -103 -44 -40 -174 -157 -290 -260
-138 -123 -211 -195 -212 -209 -2 -15 14 -41 48 -77 28 -30 96 -111 152 -180
56 -69 158 -191 227 -271 69 -80 148 -173 175 -207 28 -34 56 -62 63 -62 16 0
13 1391 -3 1396 -5 2 -26 -10 -45 -27z"/>
<path d="M5690 3680 c0 -20 46 -58 57 -46 3 3 1 6 -5 6 -7 0 -12 6 -12 13 0 7
-9 20 -20 30 -19 16 -20 16 -20 -3z"/>
<path d="M5550 3573 c-14 -10 -30 -22 -36 -28 -120 -111 -245 -223 -454 -409
-140 -125 -256 -236 -258 -247 -3 -19 10 -19 767 -19 645 0 771 2 771 14 0 12
-48 59 -274 267 -34 31 -146 132 -251 224 -104 93 -201 179 -215 192 -25 22
-27 22 -50 6z"/>
</g>
</svg>
